

The.Box.2009.DVDRip.XviD-Emery

Movie Name.....: The Box
Release Date...: February 5th, 2010
Movie IMDB.....: http://www.imdb.com/title/tt0362478/
Ratings........: 6.1/10   8,686 votes  
Genre..........: Drama | Horror | Mystery | Sci-Fi | Thriller
Director.......: Richard Kelly
Tagline........: You Are The Experiment 


PLOT
A small wooden box arrives on the doorstep of a married couple,
who know that opening it will grant them a million dollars and kill 
someone they don't know

VIDEO AND AUDIO DETAILS

Video
ID                               : 0
Format                           : MPEG-4 Visual
Format profile                   : AdvancedSimple@L5
Format settings, BVOP            : Yes
Format settings, QPel            : No
Format settings, GMC             : No warppoints
Format settings, Matrix          : Default (H.263)
Muxing mode                      : Packed bitstream
Codec ID                         : XVID
Codec ID/Hint                    : XviD
Duration                         : 1h 55mn
Bit rate                         : 713 Kbps
Width                            : 544 pixels
Height                           : 224 pixels
Display aspect ratio             : 2.40:1
Frame rate                       : 29.970 fps
Resolution                       : 24 bits
Colorimetry                      : 4:2:0
Scan type                        : Progressive
Bits/(Pixel*Frame)               : 0.195
Stream size                      : 590 MiB (84%)
Writing library                  : XviD 1.2.1 (UTC 2008-12-04)

Audio
ID                               : 1
Format                           : MPEG Audio
Format version                   : Version 1
Format profile                   : Layer 3
Format settings, Mode            : Joint stereo / MS Stereo
Codec ID                         : 55
Codec ID/Hint                    : MP3
Duration                         : 1h 55mn
Bit rate mode                    : Constant
Bit rate                         : 128 Kbps
Channel(s)                       : 2 channels
Sampling rate                    : 48.0 KHz
Resolution                       : 16 bits
Stream size                      : 106 MiB (15%)
Alignment                        : Aligned on interleaves
Interleave, duration             : 33 ms (1.00 video frame)
Interleave, preload duration     : 504 ms
